<?xml version="1.0" encoding="utf-8"?>
<!-- Generator: Adobe Illustrator 16.0.0, SVG Export Plug-In . SVG Version: 6.00 Build 0)  -->
<!DOCTYPE svg PUBLIC "-//W3C//DTD SVG 1.1//EN" "http://www.w3.org/Graphics/SVG/1.1/DTD/svg11.dtd">
<svg version="1.1" id="Layer_1" xmlns="http://www.w3.org/2000/svg" xmlns:xlink="http://www.w3.org/1999/xlink" x="0px" y="0px"
	 width="800px" height="217.188px" viewBox="0 288.5 800 217.188" enable-background="new 0 288.5 800 217.188"
	 xml:space="preserve">
<title>Artboard 1</title>
<path fill="#DBB167" d="M521.534,293.765c22.041-0.555,42.018,19.094,41.946,42.161c-0.07,22.654-19.834,42.033-42.274,41.961
	c-22.041-0.071-42.032-19.236-41.947-42.274C479.33,312.916,499.094,293.025,521.534,293.765z"/>
<path fill="#932A15" d="M244.535,406.578c0,20.902,0,41.805,0,62.65c0,2.392-0.356,4.016-3.232,3.986
	c-12.559-0.128-25.16,0.741-37.661-0.612c-19.248-1.985-34.382-17.346-36.081-36.621c-1.495-18.81,10.778-36.494,29.232-42.161
	c6.352-1.999,12.976-2.993,19.635-2.947c4.029,0,4.77-1.424,4.67-5.126c-0.384-13.712-0.299-27.438-0.598-41.164
	c-0.071-3.474,1.025-4.912,4.599-4.77c4.998,0.2,9.968,0.157,15.008,0c3.232-0.1,4.471,0.94,4.442,4.414
	C244.449,365.016,244.535,385.761,244.535,406.578z M221.283,431.496c0-9.369,0-18.738,0-28.107c0-1.424,0.684-3.019-2.079-2.99
	c-11.277,0.114-20.546,6.521-23.707,17.314c-2.909,10.327-2.646,21.291,0.754,31.468c3.033,9.668,11.392,14.608,21.458,13.868
	c2.635-0.199,3.759-0.868,3.688-3.845c-0.256-9.24-0.113-18.481-0.113-27.723V431.496z"/>
<path fill="#932A15" d="M720.477,447.87c0-17.456,0.1-34.898-0.071-52.355c0-3.787,1.268-4.955,4.912-4.87
	c12.915,0.328,25.9-0.698,38.729,1.68c26.299,4.87,41.563,29.46,34.173,55.203c-4.087,14.125-14.937,20.105-28.349,22.611
	c-7.063,1.378-14.295,1.667-21.444,0.854c-3.089-0.37-4.186,0.199-4.086,3.645c0.271,8.971,0,17.97,0.156,26.94
	c0,3.047-0.982,4.172-3.944,4.101c-5.125-0.114-10.266-0.171-15.392,0c-3.503,0.128-4.698-1.168-4.67-4.713
	C720.477,483.282,720.477,465.569,720.477,447.87z M744.412,431.04c0,9.483,0.085,18.952,0,28.478c0,2.393,0.74,3.019,3.032,3.09
	c9.968,0.327,17.728-4.628,21.601-14.082c2.928-7.557,3.94-15.721,2.947-23.765c-1.339-13.655-11.206-23.45-24.206-24.618
	c-2.406-0.214-3.36,0.171-3.304,2.848C744.526,412.345,744.412,421.686,744.412,431.04z"/>
<path fill="#932A15" d="M323.816,433.147c0-11.804,0.1-23.607,0-35.397c0-3.475,1.011-4.927,4.6-4.77
	c12.814,0.569,25.629-1.21,38.444,0.883c5.603,0.777,10.97,2.759,15.733,5.809c11.391,7.632,12.701,24.889,2.62,33.717
	c-2.094,1.912-4.628,3.276-7.376,3.973c-2.563,0.598-2.335,1.595-1.082,3.375c6.265,8.885,12.473,17.826,18.681,26.754
	c0.214,0.313,0.441,0.627,0.627,0.969c0.797,1.424,2.577,2.848,1.908,4.413c-0.77,1.78-2.99,0.798-4.557,0.826
	c-5.767,0.1-11.548,0-17.314,0c-2.36,0.201-4.608-1.042-5.695-3.146c-5.966-10.309-10.921-21.13-16.474-31.639
	c-1.14-2.164-0.456-2.848,1.608-3.46c11.69-3.417,16.175-15.164,9.882-25.758c-2.264-3.802-6.194-4.784-10.066-5.695
	c-7.562-1.78-7.532-1.723-7.532,5.995c0,19.62-0.071,39.256,0.085,58.876c0,3.489-1.253,4.485-4.471,4.4
	c-5.126-0.143-10.267-0.143-15.393,0c-3.203,0.085-4.271-1.296-4.186-4.4C323.887,456.955,323.816,445.08,323.816,433.147z"/>
<path fill="#932A15" d="M10.365,418.609c0,3.418,0,6.322,0,9.228c0,13.982-0.113,27.965,0,41.947c0,2.463-0.284,3.645-3.231,3.602
	c-7.12-0.128-7.12,0-7.12-7.02c0-20.655,0-41.311,0-61.966c0-6.92,2.848-11.648,8.088-13.3c5.874-1.511,12.076,0.705,15.662,5.596
	c5.112,7.219,9.968,14.581,14.994,21.885c3.104,4.556,6.193,9.127,9.312,13.654c0.698,1.011,1.268,2.72,2.748,2.15
	c1.268-0.484,1.097-2.165,1.111-3.432c0-2.307,0-4.613,0-6.935c0-24.766,0-49.527,0-74.283c0-4.755,0.939-5.582,5.524-5.695
	c3.474-0.1,4.67,1.281,4.655,4.784c-0.1,38.872,0,77.758-0.1,116.629c0,4.514-0.185,9.255-5.453,11.221
	c-3.631,1.353-8.472-1.111-11.918-5.995c-10.949-15.62-20.433-32.236-30.655-48.326C13.185,421.088,12.73,419.492,10.365,418.609z"
	/>
<path fill="#932A15" d="M416.239,406.208c0-20.532,0-41.05,0-61.582c0-3.46,0.997-4.941,4.585-4.799c4.998,0.2,9.968,0.171,15.008,0
	c3.232-0.1,4.485,0.94,4.471,4.4c-0.113,41.7-0.113,83.396,0,125.086c0,3.147-1.224,4.044-4.072,4.001
	c-5.126-0.085-10.266-0.17-15.392,0c-3.603,0.143-4.6-1.353-4.585-4.798C416.296,447.771,416.239,427.054,416.239,406.208z"/>
<path fill="#932A15" d="M140.578,473.485c-3.274-0.341-8.301,1.666-11.135-0.754c-2.62-2.235-3.189-7.12-4.271-10.851
	c-0.939-3.132-2.705-4.271-5.909-4.129c-7.119,0.171-14.366,0.114-21.543,0c-1.979,0-3.09,0.413-3.417,2.549
	c-0.417,2.002-0.944,3.979-1.581,5.923c-2.007,7.262-3.901,8.358-11.519,7.12c-2.592-0.441-1.04-1.823-0.755-2.734
	c4.746-15.264,9.521-30.514,14.324-45.749c2.121-6.692,4.271-13.398,6.521-20.033c1.474-4.402,4.183-8.287,7.803-11.192
	c6.108-4.912,13.797-3.873,18.51,2.52c2.678,4.072,4.718,8.527,6.052,13.214c6.835,20.233,13.556,40.495,20.404,60.728
	c0.812,2.406,0.284,3.403-2.222,3.403L140.578,473.485z M110.763,410.123h-0.74c-4.148,12.142-8.307,24.282-12.474,36.423
	c-0.498,1.424-0.128,2.051,1.523,2.036c6.536,0,13.086-0.085,19.621,0c1.894,0,2.15-0.726,1.737-2.278
	c-1.04-3.83-2.036-7.66-3.062-11.505L110.763,410.123z"/>
<path fill="#932A15" d="M688.909,473.301c-3.973,0-8.714,1.353-11.676-0.37s-3.274-6.935-4.399-10.693
	c-1.039-3.475-2.947-4.6-6.436-4.499c-7.049,0.199-14.097,0.128-21.159,0c-1.979,0-3.075,0.427-3.417,2.563
	c-0.417,2.002-0.944,3.979-1.581,5.923c-1.993,7.248-3.93,8.358-11.519,7.12c-2.605-0.441-1.025-1.837-0.755-2.734
	c4.746-15.264,9.521-30.514,14.324-45.749c2.122-6.692,4.271-13.398,6.521-20.033c1.474-4.402,4.183-8.287,7.803-11.192
	c6.108-4.912,13.797-3.859,18.51,2.52c2.677,4.072,4.718,8.527,6.052,13.214c6.835,20.233,13.556,40.495,20.404,60.728
	c0.812,2.406,0.271,3.403-2.222,3.403h-10.38L688.909,473.301z M644.499,448.554c7.305,0,14.082-0.143,20.846,0
	c2.848,0.086,3.09-0.825,2.42-3.274c-3.004-10.851-5.838-21.743-8.757-32.621c-0.242-0.926,0-2.136-1.424-2.62L644.499,448.554z"/>
<path fill="#932A15" d="M586.42,392.34c10.266,0,20.518,0.114,30.783,0c3.118,0,4.613,0.84,4.472,4.029
	c0,0.755,0.185,1.523,0.228,2.292c0.327,5.98-0.513,6.848-6.535,6.848c-4.742,0-9.498,0.172-14.239,0
	c-2.605-0.127-3.161,0.713-3.146,3.176c0.1,19.935,0,39.755,0,59.632c0,5.026,0,5.098-5.154,5.111c-4.613,0-9.241-0.156-13.854,0
	c-3.574,0.157-5.012-0.954-4.983-4.798c0.185-19.75,0-39.498,0.214-59.248c0-3.203-0.755-4.157-3.959-3.958
	c-4.855,0.3-9.753,0-14.608,0.143c-3.133,0.128-4.557-1.067-4.5-4.157c0-0.641-0.185-1.268-0.185-1.909
	c0-6.792,0.213-7.119,6.963-7.119L586.42,392.34z"/>
<path fill="#932A15" d="M297.673,433.134c0,11.932-0.128,23.863,0.071,35.781c0,3.475-1.21,4.514-4.441,4.414
	c-5.126-0.156-10.267-0.114-15.393,0c-2.848,0-4.271-0.868-4.271-3.973c0.076-24.11,0.076-48.227,0-72.347
	c0-2.748,0.939-4.058,3.773-4.015c5.51,0,11.035,0.085,16.545,0c2.848,0,3.73,1.153,3.702,3.958
	C297.588,409.014,297.673,421.073,297.673,433.134z"/>
<path fill="#932A15" d="M531.8,433.561c0,11.804-0.128,23.607,0.071,35.397c0,3.517-1.281,4.471-4.485,4.386
	c-5.126-0.143-10.266-0.114-15.392,0c-2.848,0-4.187-0.926-4.172-4.016c0.075-24.111,0.075-48.227,0-72.347
	c0-3.104,1.424-4.044,4.2-3.987c5.126,0.1,10.266,0.142,15.392,0c3.232-0.1,4.514,0.925,4.457,4.414
	C531.672,409.44,531.8,421.5,531.8,433.561z"/>
<path fill="#932A15" d="M479.345,473.301c-10.479,3.019-15.663-2.421-19.521-11.391c-3.531-8.06-8.301-15.663-12.644-23.295
	c-1.496-2.29-1.451-5.26,0.113-7.504c7.119-11.875,14.14-23.793,20.974-35.824c1.424-2.406,2.848-3.332,5.468-3.004
	c0.883,0.114,1.809-0.071,2.691,0c1.965,0.256,4.57-1.054,5.695,0.883c1.424,2.335-0.911,4.271-2.051,6.165
	c-4.356,7.12-8.728,14.239-13.398,21.102c-1.385,1.687-1.426,4.104-0.1,5.838c8.287,14.452,16.403,28.99,24.69,43.428
	c1.552,2.705,1.552,3.802-1.979,3.588C485.752,473.073,482.691,473.301,479.345,473.301z"/>
<path fill="#DBB167" d="M286.981,382.33c-12.33,0.063-22.377-9.882-22.439-22.212c-0.063-12.33,9.882-22.376,22.212-22.439
	c12.33-0.063,22.377,9.882,22.439,22.212c0.001,0.081,0,0.161,0,0.242C309.161,372.384,299.233,382.306,286.981,382.33z"/>
</svg>
